<?xml version="1.0" standalone="no"?>
<!DOCTYPE svg PUBLIC "-//W3C//DTD SVG 20010904//EN"
 "http://www.w3.org/TR/2001/REC-SVG-20010904/DTD/svg10.dtd">
<svg version="1.0" xmlns="http://www.w3.org/2000/svg"
 width="1024.000000pt" height="1024.000000pt" viewBox="0 0 1024.000000 1024.000000"
 preserveAspectRatio="xMidYMid meet">
<metadata>
Created by potrace 1.11, written by Peter Selinger 2001-2013
</metadata>
<g transform="translate(0.000000,1024.000000) scale(0.100000,-0.100000)"
fill="#000000" stroke="none">
<path d="M0 5120 l0 -5120 145 0 c133 0 147 2 178 22 19 13 50 32 68 43 41 25
59 37 148 100 39 28 86 60 104 72 17 12 39 28 47 36 8 7 34 25 58 41 23 16 42
32 42 37 0 4 9 11 20 14 11 3 27 14 36 23 9 9 31 28 50 42 18 14 77 59 131
101 54 42 105 84 113 94 22 26 206 184 270 231 30 22 73 53 95 69 51 38 170
119 315 215 63 42 126 83 140 93 14 9 50 34 80 54 48 33 197 139 225 161 6 4
47 37 93 72 214 167 290 213 436 264 102 36 196 100 216 146 26 57 221 173
362 214 55 16 59 19 87 74 71 141 105 333 135 771 15 216 11 404 -14 606 -5
44 -14 118 -20 165 -5 47 -10 88 -10 93 0 4 12 7 28 7 37 1 74 31 74 61 -2 77
-46 256 -82 331 -40 82 -69 105 -96 78 -5 -5 -43 -21 -84 -36 -109 -38 -202
-34 -284 11 -22 13 -60 33 -84 45 -109 56 -208 185 -261 341 -15 46 -47 127
-69 179 -56 130 -75 250 -70 428 5 156 18 200 84 269 55 58 109 71 183 46 90
-30 231 -130 231 -163 0 -9 8 -23 18 -32 31 -30 42 -47 42 -67 0 -11 5 -21 11
-23 9 -3 8 -10 -2 -25 -15 -26 -51 -39 -42 -16 4 9 -2 16 -16 20 -11 3 -21 10
-21 17 0 6 -33 24 -73 40 -39 16 -101 47 -137 69 -81 51 -150 61 -191 28 -45
-35 -47 -144 -7 -363 8 -41 14 -55 24 -51 9 3 14 22 14 54 0 36 4 49 15 49 17
0 35 -30 35 -61 0 -69 38 73 40 147 0 6 9 23 20 37 l21 26 69 -34 c37 -19 73
-35 79 -35 6 0 25 -13 43 -30 17 -16 37 -30 44 -30 8 0 14 -4 14 -10 0 -5 7
-10 15 -10 32 0 8 -51 -48 -102 -16 -15 -33 -43 -38 -66 -8 -36 -5 -47 23 -96
34 -59 55 -69 76 -36 13 22 42 27 42 8 0 -31 12 7 20 64 9 64 44 157 63 169 5
4 22 3 36 -1 17 -5 30 -3 39 6 14 16 16 44 2 44 -14 0 -13 27 1 32 7 2 5 24
-6 68 -15 57 -15 65 -2 75 38 27 60 321 45 583 -2 29 3 60 11 75 11 21 12 32
4 50 -22 45 -21 65 3 88 14 13 34 44 46 69 11 25 25 53 30 64 15 28 24 171 10
162 -18 -11 -22 10 -7 30 21 28 19 47 -5 41 -11 -3 -18 -1 -14 4 3 5 -3 25
-12 46 -10 20 -17 52 -17 70 1 38 -15 50 -45 34 -28 -15 -42 5 -42 62 0 40 -3
50 -20 54 -21 6 -26 18 -11 27 15 9 23 106 10 122 -8 10 -8 14 0 14 6 0 24 26
40 58 27 53 93 132 110 132 3 0 15 11 25 25 10 14 36 30 57 35 26 7 41 19 50
39 14 32 45 55 60 45 13 -8 3 -67 -17 -106 -20 -38 -2 -45 60 -24 61 21 65 20
76 -10 8 -19 14 -23 23 -16 13 11 64 5 73 -9 3 -5 14 -9 25 -9 10 0 19 -7 19
-15 0 -8 7 -15 15 -15 8 0 15 6 15 14 0 8 16 24 35 36 19 12 35 26 35 31 0 5
8 9 18 9 19 0 62 39 62 56 0 6 11 17 25 24 14 7 25 17 25 22 0 4 6 8 13 8 16
1 67 46 67 60 0 5 5 10 10 10 6 0 28 18 50 41 34 36 37 44 27 63 -7 11 -16 24
-22 28 -5 4 24 8 65 8 55 0 71 -3 60 -11 -11 -7 -1 -9 38 -5 34 4 52 2 52 -5
0 -6 8 -9 18 -7 9 2 17 12 17 22 0 10 7 22 15 26 61 30 70 33 83 22 16 -13
159 -18 242 -8 65 8 104 -5 75 -24 -8 -5 -19 -10 -25 -10 -5 0 -3 4 5 10 20
13 6 23 -20 15 -20 -6 -21 -8 -7 -23 9 -8 31 -15 49 -15 18 1 55 2 81 2 26 1
53 -2 59 -6 7 -4 32 -6 55 -4 43 3 44 2 37 -25 -6 -25 -5 -26 19 -20 31 7 44
-8 20 -24 -17 -11 -17 -11 0 -6 10 3 23 6 28 6 6 0 7 5 4 10 -8 13 11 13 37
-1 14 -8 23 -8 31 0 8 8 15 7 27 -4 37 -34 138 -18 164 25 18 32 42 41 31 13
-5 -15 -4 -16 6 -5 7 6 21 12 31 12 10 0 21 7 24 15 4 8 12 15 19 15 8 0 17 9
20 20 9 27 60 27 75 0 6 -11 18 -20 26 -20 9 0 22 -6 30 -14 12 -13 18 -13 41
-1 15 8 37 12 50 9 16 -4 25 -1 29 10 3 9 12 16 19 16 7 0 18 6 24 14 15 18
71 26 95 14 10 -6 21 -6 25 -1 3 5 28 9 55 10 27 1 53 6 59 12 6 6 20 11 30
11 33 0 146 43 168 63 23 22 66 25 97 8 15 -8 27 -7 46 3 20 10 38 11 72 4 31
-7 49 -6 58 1 9 8 22 8 39 2 34 -13 27 11 -8 27 -29 13 -50 48 -35 57 6 4 33
4 60 0 53 -7 67 4 28 22 l-23 11 28 12 c20 10 26 18 21 32 -5 18 -3 19 55 22
17 1 31 12 44 35 l20 33 -34 -6 c-23 -4 -27 -3 -14 2 19 9 19 9 -3 23 -25 16
-30 39 -8 39 8 0 18 5 22 11 4 8 -1 9 -16 4 -22 -7 -23 -5 -17 29 7 47 0 71
-18 56 -17 -14 -27 12 -19 46 7 28 -3 31 -22 7 -13 -17 -13 -17 -14 2 0 15 -4
12 -16 -12 -20 -41 -64 -47 -64 -10 0 12 -8 31 -17 42 -10 13 -14 15 -10 4 3
-9 2 -21 -2 -28 -9 -14 -51 49 -51 77 -1 15 -2 15 -14 -1 -14 -18 -14 -17 -21
2 -3 12 -15 26 -26 31 -16 9 -19 7 -19 -9 0 -11 -4 -23 -10 -26 -5 -3 -10 -17
-10 -30 0 -13 -4 -27 -10 -30 -6 -3 -10 4 -10 16 0 18 -2 20 -16 8 -13 -11
-19 -8 -39 17 -20 25 -24 27 -30 12 -4 -10 -14 -18 -22 -18 -11 0 -13 7 -9 25
4 14 2 25 -3 25 -15 0 -25 -22 -23 -51 3 -37 -23 -57 -46 -36 -16 14 -17 14
-19 -10 -2 -36 -15 -46 -48 -33 -15 6 -37 8 -48 4 -13 -4 -17 -2 -13 5 5 7 -3
11 -23 11 -16 0 -33 5 -36 10 -4 6 -10 8 -13 6 -4 -2 -34 2 -67 10 -53 12 -61
12 -71 -1 -9 -13 -17 -13 -40 -4 -97 38 -164 45 -461 49 -109 1 -143 5 -147
15 -3 10 -15 12 -38 9 -45 -7 -157 12 -178 31 -9 8 -35 15 -57 15 -22 0 -62 7
-88 15 -27 8 -53 11 -58 8 -6 -3 -7 -1 -3 5 11 18 -11 49 -46 66 -17 9 -33 15
-35 13 -1 -2 11 -18 29 -35 17 -18 29 -34 27 -37 -3 -2 -22 -6 -43 -8 -26 -3
-39 0 -43 9 -3 8 -15 14 -27 14 -34 0 -53 17 -38 32 10 10 18 9 41 -5 65 -38
86 -4 24 38 -74 49 -88 59 -111 79 -20 18 -21 21 -6 29 14 8 13 12 -12 33 -16
13 -39 23 -51 24 -12 0 -25 5 -28 10 -3 6 -16 10 -28 9 -20 -1 -20 -2 3 -9 14
-4 21 -9 15 -9 -5 -1 -2 -8 8 -15 30 -23 1 -28 -40 -7 -49 24 -112 41 -118 32
-2 -5 7 -13 20 -19 42 -19 28 -27 -48 -28 -88 0 -130 -10 -121 -27 4 -7 4 -9
-1 -5 -11 10 -45 -10 -45 -27 0 -7 -9 -17 -20 -20 -27 -8 -25 -39 3 -58 21
-14 19 -15 -46 -22 -37 -4 -77 -5 -89 -2 -11 3 -34 -1 -49 -9 -33 -17 -39 -17
-39 -4 0 6 10 10 21 10 18 0 19 3 9 14 -14 18 -57 5 -52 -15 5 -20 -16 -27
-102 -35 -81 -8 -81 -8 -38 -17 48 -11 56 -27 15 -28 -85 -2 -137 -9 -146 -18
-6 -6 -23 -11 -38 -11 -15 0 -29 -7 -33 -16 -10 -25 -7 -34 8 -28 15 6 56 -12
56 -24 0 -4 -25 -20 -55 -36 -30 -17 -53 -31 -52 -33 9 -8 83 23 119 50 24 18
70 46 103 61 33 16 63 34 66 39 3 5 9 8 13 8 24 -3 36 1 31 10 -5 7 6 9 37 4
29 -4 57 -2 83 8 22 9 58 18 80 20 22 3 48 8 58 12 14 6 17 2 17 -24 0 -20 7
-35 20 -43 18 -11 18 -14 3 -30 -9 -10 -24 -18 -34 -18 -15 0 -17 -4 -10 -22
5 -13 14 -23 22 -24 8 0 22 -2 32 -2 9 -1 17 -7 17 -13 0 -11 -18 -10 -92 7
-40 9 -35 -12 7 -32 37 -17 44 -29 22 -37 -9 -4 -9 -6 1 -6 6 -1 12 -7 12 -15
0 -7 9 -16 20 -19 28 -7 25 -35 -5 -49 -19 -8 -55 -56 -55 -73 0 -1 12 0 28 2
25 4 27 2 28 -33 0 -21 6 -40 12 -42 8 -2 10 -14 6 -30 -9 -38 -25 -54 -45
-49 -19 5 -43 -15 -32 -26 11 -12 43 -8 43 5 0 6 11 1 25 -12 26 -24 26 -24 5
-32 -35 -13 -108 12 -95 32 3 4 -16 11 -42 15 -37 5 -51 3 -72 -13 -14 -10
-38 -22 -53 -25 -15 -4 -45 -26 -66 -49 -21 -22 -44 -39 -51 -37 -7 3 8 25 38
54 59 58 54 78 -13 44 -54 -27 -73 -17 -32 16 16 13 26 28 21 34 -4 7 -1 19 6
27 16 20 2 31 -21 16 -11 -7 -32 -12 -47 -12 l-28 1 28 17 c31 19 37 47 8 37
-11 -3 -22 -1 -25 4 -4 5 3 12 14 16 20 6 29 45 10 45 -5 0 -10 -4 -10 -9 0
-5 -8 -8 -17 -7 -12 0 -19 -7 -21 -21 -3 -24 -41 -41 -61 -28 -18 10 -12 19
29 45 39 23 51 40 29 40 -17 0 -79 -51 -79 -66 0 -8 -10 -14 -22 -14 -27 0
-88 -35 -88 -50 0 -5 -7 -10 -15 -10 -8 0 -15 -4 -15 -9 0 -5 -10 -13 -22 -17
-13 -4 -35 -16 -50 -27 -38 -28 -48 -13 -15 21 26 27 35 52 20 52 -33 0 -163
-119 -163 -148 0 -12 -8 -29 -18 -39 -31 -31 -49 -67 -57 -110 -3 -23 -22 -67
-41 -99 -19 -31 -34 -59 -34 -62 0 -3 -11 -20 -25 -38 -30 -39 -53 -101 -47
-126 5 -24 19 -23 27 2 7 22 45 48 45 31 0 -5 -4 -12 -9 -15 -5 -3 -14 -26
-20 -51 -7 -27 -17 -45 -26 -45 -8 0 -19 -9 -25 -19 -5 -11 -16 -25 -23 -33
-7 -7 -28 -40 -46 -72 -18 -33 -40 -65 -48 -71 -15 -11 -14 -13 3 -23 15 -8
16 -14 7 -34 -25 -53 -33 -81 -33 -108 0 -38 -20 -80 -38 -80 -15 0 -14 5 10
95 5 22 10 68 9 102 0 41 4 65 12 70 7 4 19 28 27 53 8 24 22 51 32 59 11 9
15 23 12 36 -3 11 2 34 10 50 18 34 20 55 7 55 -5 0 -16 -19 -23 -42 -21 -62
-43 -64 -35 -2 4 32 3 42 -3 28 -9 -23 -28 -39 -36 -32 -2 3 2 24 10 49 7 24
20 64 27 89 7 25 26 70 41 100 28 54 54 134 65 195 3 17 12 38 21 47 10 12 13
29 9 52 -4 28 0 44 24 78 16 24 29 57 29 74 0 20 11 42 30 64 61 68 74 123 44
186 -15 31 -20 34 -58 34 -57 0 -75 13 -46 33 l22 15 -23 4 c-37 5 -27 20 35
52 31 17 56 33 56 37 0 3 -15 14 -32 23 -34 16 -31 17 35 21 57 3 68 21 18 30
-60 10 -50 25 12 18 41 -4 56 -2 66 11 12 14 11 16 -9 16 -40 0 -15 25 28 28
41 3 61 22 24 22 -24 0 -32 8 -25 26 3 9 20 14 46 14 22 0 38 3 34 6 -3 4 4
15 16 25 l22 18 -22 1 c-13 0 -23 -4 -23 -8 0 -13 -63 -32 -103 -32 -36 0 -49
13 -24 24 6 3 -6 3 -28 0 -33 -4 -45 -1 -59 15 -22 24 -17 26 54 35 157 17
204 37 214 90 9 48 46 77 101 82 53 4 101 25 98 42 -2 7 7 12 20 12 13 0 34
11 46 24 13 14 39 32 57 41 40 19 43 32 9 45 -33 13 -31 21 10 48 35 22 47 52
21 52 -8 0 -18 5 -22 11 -4 8 0 9 15 4 21 -6 114 18 137 36 6 5 14 6 17 3 3
-4 14 -4 23 0 24 9 -1 36 -33 36 -14 0 -38 8 -54 17 l-30 18 48 11 c26 6 41
13 33 16 -8 3 -28 9 -44 14 -50 15 -44 34 10 34 47 0 48 1 26 16 -24 16 -29
43 -11 61 8 8 3 18 -17 36 -25 23 -26 27 -11 33 11 4 26 -1 37 -11 13 -11 20
-14 20 -6 0 8 5 9 16 3 9 -5 26 -7 36 -4 11 3 23 0 27 -5 11 -18 79 -23 85 -7
4 10 13 13 31 8 33 -8 53 9 61 52 5 28 11 34 30 34 53 0 153 25 156 38 2 9 20
16 48 18 61 5 70 10 70 34 0 24 18 26 46 5 32 -24 52 -18 65 20 13 36 29 47
29 20 0 -8 7 -15 15 -15 10 0 15 -10 15 -32 l0 -33 20 25 c18 23 19 24 26 6 7
-19 8 -19 15 0 7 17 8 17 8 2 1 -10 5 -18 9 -18 5 0 14 -11 20 -25 15 -33 62
-36 62 -4 0 18 3 19 15 9 8 -6 19 -9 25 -5 24 15 50 -6 56 -46 7 -39 18 -50
28 -26 3 8 9 6 20 -7 15 -19 16 -19 16 7 0 15 5 27 10 27 6 0 10 -19 10 -42 1
-38 2 -41 14 -25 7 9 18 17 24 17 17 0 23 32 16 87 -8 66 1 68 19 6 11 -36 19
-47 35 -48 12 -1 22 3 23 9 0 6 4 1 9 -11 5 -13 14 -23 20 -23 5 0 10 -6 10
-13 0 -37 104 -73 136 -46 8 7 14 7 19 -1 3 -5 15 -10 26 -10 15 0 19 5 14 19
-4 13 0 20 15 24 11 3 20 12 20 21 0 13 4 15 19 7 15 -9 20 -6 26 12 7 22 7
22 14 -3 6 -22 8 -23 14 -7 8 21 27 14 27 -10 0 -8 9 -26 20 -40 l20 -26 -5
32 c-3 17 -7 45 -10 63 -7 41 10 26 23 -22 9 -30 11 -32 17 -14 7 22 46 27 53
6 2 -8 11 -8 28 -2 21 8 25 7 23 -8 -3 -38 1 -51 16 -46 11 5 15 -1 15 -21 0
-29 3 -29 69 -9 21 6 23 4 18 -11 -6 -15 -3 -16 20 -11 33 8 71 8 84 0 5 -3 9
-16 9 -29 0 -13 5 -27 11 -30 16 -11 59 -13 59 -4 0 5 17 17 37 26 22 11 40
28 45 43 5 19 7 15 5 -17 -3 -46 10 -56 31 -23 14 23 32 26 32 6 0 -7 10 -16
21 -19 17 -5 20 -11 15 -32 -4 -14 -4 -30 -2 -34 3 -4 47 0 98 9 75 15 96 22
115 44 13 15 28 24 34 20 6 -3 15 0 20 7 6 11 11 11 20 2 10 -10 10 -26 1 -75
-6 -35 -15 -81 -18 -103 -4 -22 -13 -52 -20 -66 -10 -20 -11 -51 -6 -125 7
-99 7 -99 35 -102 15 -2 32 -12 37 -23 10 -17 18 -19 79 -14 47 4 71 3 76 -5
5 -8 24 -9 57 -5 l51 7 -7 -27 c-5 -19 -4 -25 5 -19 9 5 10 1 7 -14 -9 -35 14
-45 63 -28 33 12 45 12 51 3 6 -9 8 -9 8 1 0 6 4 12 10 12 5 0 7 -6 4 -13 -2
-7 4 -22 16 -32 19 -18 21 -18 55 1 30 16 38 17 56 6 11 -7 43 -16 70 -19 43
-5 49 -8 43 -25 -10 -33 23 -58 77 -58 l48 0 -9 -30 c-8 -28 -6 -33 23 -50 18
-11 42 -20 55 -20 12 0 22 -2 22 -5 0 -15 -54 -85 -69 -90 -14 -4 -51 -62 -51
-79 0 -11 114 -76 134 -76 18 0 27 -8 34 -29 6 -16 8 -32 5 -35 -4 -3 1 -14
11 -24 11 -13 16 -34 15 -65 -2 -41 -5 -47 -31 -56 -25 -9 -28 -13 -18 -31 7
-14 8 -26 0 -39 -5 -11 -10 -30 -10 -42 0 -13 -12 -33 -27 -44 -20 -17 -25
-27 -20 -47 4 -15 16 -28 29 -32 22 -6 22 -7 5 -20 -18 -14 -11 -26 24 -39 25
-8 13 -60 -12 -52 -16 6 -18 1 -14 -37 3 -29 -1 -48 -11 -59 -12 -13 -13 -22
-5 -38 31 -61 31 -60 13 -71 -16 -9 -16 -11 1 -21 11 -7 15 -17 12 -32 -8 -31
20 -94 45 -102 15 -5 18 -10 11 -19 -6 -7 -6 -37 -1 -80 5 -44 5 -77 -2 -91
-8 -17 -5 -33 11 -70 25 -57 26 -63 5 -104 -13 -26 -15 -49 -9 -113 4 -48 3
-84 -3 -91 -14 -16 -32 -120 -32 -178 0 -25 -7 -65 -15 -89 -11 -30 -12 -47
-5 -61 7 -12 7 -25 1 -36 -5 -10 -12 -39 -16 -65 -4 -27 -12 -48 -17 -48 -6 0
-7 -11 -4 -24 4 -16 1 -26 -9 -30 -11 -4 -14 -13 -9 -31 4 -18 2 -25 -8 -25
-8 0 -13 -11 -13 -27 0 -41 -17 -43 -27 -5 -6 23 -5 38 3 48 8 10 9 18 0 27
-8 10 -8 29 -2 63 5 27 6 53 3 59 -4 5 -10 37 -13 70 -4 33 -9 69 -12 80 -3
11 -6 28 -6 39 -1 15 -4 16 -15 7 -11 -10 -16 -8 -20 7 -4 11 -3 27 0 37 6 15
3 17 -18 12 -23 -6 -26 -3 -32 28 l-7 36 -30 -21 c-16 -12 -29 -28 -29 -36 0
-8 -4 -14 -9 -14 -5 0 -7 -9 -4 -21 4 -14 -1 -25 -16 -35 -25 -18 -28 -42 -6
-51 13 -5 13 -8 -5 -20 -14 -10 -20 -25 -20 -51 0 -44 22 -128 44 -173 9 -18
16 -41 16 -52 0 -12 5 -46 10 -76 22 -123 27 -170 17 -174 -6 -2 -7 -21 -3
-48 6 -40 10 -47 42 -58 41 -15 69 -2 46 21 -19 19 -14 42 13 55 14 6 25 10
25 8 0 -1 7 -18 14 -37 14 -32 13 -38 -9 -81 -28 -56 -20 -59 61 -17 95 48
161 36 226 -39 50 -59 61 -105 59 -256 -1 -200 -21 -322 -83 -520 -89 -283
-135 -364 -239 -419 -30 -15 -70 -36 -89 -47 -19 -10 -53 -19 -75 -19 -30 0
-36 -3 -25 -10 13 -9 13 -10 -1 -10 -8 0 -19 4 -25 9 -5 5 -33 12 -61 16 -49
6 -53 5 -63 -17 -5 -12 -16 -90 -25 -173 -19 -194 -60 -387 -102 -485 -61
-142 -101 -209 -171 -288 -18 -20 -46 -58 -63 -83 l-30 -47 -6 -475 -6 -475
55 -53 c64 -63 112 -123 129 -165 25 -57 48 -74 101 -74 66 0 154 -38 256
-111 93 -67 226 -149 240 -149 5 0 47 -23 93 -51 46 -28 134 -74 194 -104 61
-29 127 -65 148 -79 36 -25 288 -152 378 -190 39 -17 437 -211 719 -351 58
-28 123 -58 145 -64 22 -7 56 -23 75 -35 94 -59 156 -101 165 -110 11 -12 86
-65 113 -81 140 -80 372 -235 436 -291 134 -119 212 -196 251 -249 83 -110 74
-105 164 -105 l81 0 0 5120 0 5120 -5120 0 -5120 0 0 -5120z m4627 3241 c6 -9
10 -18 8 -19 -6 -6 -65 32 -65 41 0 13 43 -4 57 -22z m1763 -288 c0 -5 -5 -15
-10 -23 -8 -12 -10 -11 -10 8 0 12 5 22 10 22 6 0 10 -3 10 -7z m-703 -17 c3
-3 -15 -6 -41 -6 -26 0 -45 4 -42 8 6 10 73 8 83 -2z m-107 -55 c0 -5 -9 -7
-20 -4 -11 3 -20 7 -20 9 0 2 9 4 20 4 11 0 20 -4 20 -9z m260 -11 c0 -13 -11
-13 -30 0 -12 8 -11 10 8 10 12 0 22 -4 22 -10z m65 0 c3 -5 -1 -10 -10 -10
-9 0 -13 5 -10 10 3 6 8 10 10 10 2 0 7 -4 10 -10z m777 -82 c-7 -7 -12 -8
-12 -2 0 14 12 26 19 19 2 -3 -1 -11 -7 -17z m-206 -295 c-10 -10 -19 5 -10
18 6 11 8 11 12 0 2 -7 1 -15 -2 -18z m-2361 -13 c-3 -5 -13 -10 -21 -10 -8 0
-14 5 -14 10 0 6 9 10 21 10 11 0 17 -4 14 -10z m133 -20 c-25 -34 -27 -35
-63 -18 -36 16 -31 24 15 20 32 -3 40 -1 40 12 0 9 7 16 15 16 13 0 11 -6 -7
-30z m517 -50 c-3 -5 -16 -10 -28 -10 -18 0 -19 2 -7 10 20 13 43 13 35 0z
m-575 -14 c0 -2 -7 -6 -15 -10 -8 -3 -15 -1 -15 4 0 6 7 10 15 10 8 0 15 -2
15 -4z m207 -12 c-3 -3 -12 -4 -19 -1 -8 3 -5 6 6 6 11 1 17 -2 13 -5z m-62
-24 c3 -5 2 -10 -4 -10 -5 0 -13 5 -16 10 -3 6 -2 10 4 10 5 0 13 -4 16 -10z
m-1166 -240 c-12 -22 -25 -37 -28 -34 -7 7 30 74 41 74 5 0 -1 -18 -13 -40z
m-259 -260 c0 -5 -5 -10 -11 -10 -5 0 -7 5 -4 10 3 6 8 10 11 10 2 0 4 -4 4
-10z m153 -25 c-9 -19 -18 -33 -20 -32 -5 6 21 67 29 67 4 0 0 -16 -9 -35z
m-175 -69 c-7 -8 -15 -12 -17 -11 -5 6 10 25 20 25 5 0 4 -6 -3 -14z m0 -346
c-8 -12 -16 -16 -22 -10 -6 6 -4 15 4 24 17 22 32 9 18 -14z m2 -64 c-14 -14
-22 -2 -14 18 5 14 9 15 15 4 4 -7 4 -17 -1 -22z m4375 -626 c-3 -5 -15 -10
-26 -10 -11 0 -17 5 -14 10 3 6 -1 13 -9 16 -20 8 -20 18 0 39 16 15 18 14 36
-14 11 -17 17 -35 13 -41z"/>
<path d="M5080 9288 c0 -24 11 -48 21 -48 13 0 10 23 -6 44 -12 16 -15 17 -15
4z"/>
<path d="M5070 9230 c0 -5 5 -10 11 -10 5 0 7 5 4 10 -3 6 -8 10 -11 10 -2 0
-4 -4 -4 -10z"/>
<path d="M6397 9057 c-4 -10 -7 -28 -6 -40 0 -21 1 -21 10 2 5 14 8 32 7 40
-3 13 -5 13 -11 -2z"/>
<path d="M6320 8976 c0 -8 5 -18 10 -21 6 -3 10 1 10 9 0 8 -4 18 -10 21 -5 3
-10 -1 -10 -9z"/>
<path d="M4516 8823 c-11 -11 -6 -23 9 -23 8 0 15 4 15 9 0 13 -16 22 -24 14z"/>
<path d="M4750 8780 c0 -5 5 -10 10 -10 6 0 10 5 10 10 0 6 -4 10 -10 10 -5 0
-10 -4 -10 -10z"/>
<path d="M4575 8760 c3 -5 8 -10 11 -10 2 0 4 5 4 10 0 6 -5 10 -11 10 -5 0
-7 -4 -4 -10z"/>
<path d="M4560 8572 c0 -10 70 -45 77 -39 6 6 -52 47 -66 47 -6 0 -11 -4 -11
-8z"/>
<path d="M5790 8564 c0 -9 5 -14 12 -12 18 6 21 28 4 28 -9 0 -16 -7 -16 -16z"/>
<path d="M5856 8551 c-3 -5 -15 -7 -26 -4 -26 7 -26 -13 0 -27 11 -6 20 -15
20 -19 0 -5 20 -30 44 -56 29 -33 46 -44 51 -35 4 6 2 17 -4 23 -6 6 -11 18
-11 26 0 9 11 -1 25 -22 25 -36 45 -48 45 -27 0 6 -4 10 -10 10 -16 0 -34 41
-21 49 17 11 -56 74 -76 67 -11 -4 -14 -2 -9 9 6 16 -19 22 -28 6z"/>
<path d="M4505 8520 c3 -5 10 -10 16 -10 5 0 9 5 9 10 0 6 -7 10 -16 10 -8 0
-12 -4 -9 -10z"/>
<path d="M4560 8490 c0 -5 5 -10 11 -10 5 0 7 5 4 10 -3 6 -8 10 -11 10 -2 0
-4 -4 -4 -10z"/>
<path d="M6018 8403 c7 -3 16 -2 19 1 4 3 -2 6 -13 5 -11 0 -14 -3 -6 -6z"/>
<path d="M5110 8340 c14 -11 31 -20 38 -20 6 0 12 -6 12 -12 0 -33 221 -131
243 -109 5 5 28 7 50 4 32 -3 38 -2 27 6 -12 9 -12 13 -2 19 8 5 -7 13 -40 22
-29 7 -69 21 -88 31 -42 23 -60 24 -60 4 0 -17 -16 -20 -25 -5 -3 5 -13 6 -21
3 -10 -4 -17 2 -21 16 -3 11 -11 21 -17 21 -6 0 -29 9 -51 20 -52 26 -79 26
-45 0z"/>
<path d="M4758 8343 c7 -3 16 -2 19 1 4 3 -2 6 -13 5 -11 0 -14 -3 -6 -6z"/>
<path d="M6120 8300 c0 -13 28 -25 38 -16 3 4 0 11 -8 16 -20 13 -30 12 -30 0z"/>
<path d="M6170 8246 c0 -8 5 -18 10 -21 6 -3 10 -18 11 -33 0 -15 3 -21 6 -14
6 17 23 15 23 -2 0 -8 16 -24 36 -36 34 -22 36 -22 49 -4 12 16 11 20 -3 28
-9 5 -30 25 -47 43 -16 19 -37 35 -45 36 -8 2 -21 6 -27 10 -8 5 -13 3 -13 -7z"/>
<path d="M6120 8230 c13 -23 20 -26 20 -6 0 8 -7 16 -15 20 -13 4 -14 2 -5
-14z"/>
<path d="M6150 8205 c0 -5 5 -17 10 -25 5 -8 10 -10 10 -5 0 6 -5 17 -10 25
-5 8 -10 11 -10 5z"/>
<path d="M6561 8174 c0 -11 3 -14 6 -6 3 7 2 16 -1 19 -3 4 -6 -2 -5 -13z"/>
<path d="M3572 7968 c-19 -19 -14 -29 8 -16 20 13 27 28 12 28 -4 0 -13 -5
-20 -12z"/>
<path d="M3745 7870 c3 -5 8 -10 11 -10 2 0 4 5 4 10 0 6 -5 10 -11 10 -5 0
-7 -4 -4 -10z"/>
<path d="M7290 7831 c-5 -11 -10 -26 -10 -33 0 -12 -70 -79 -103 -100 -23 -14
3 -20 33 -8 36 15 80 74 80 107 0 12 7 29 16 37 8 9 11 16 5 16 -6 0 -15 -9
-21 -19z"/>
<path d="M3890 7700 c-13 -8 -13 -10 2 -10 9 0 20 5 23 10 8 13 -5 13 -25 0z"/>
<path d="M3840 7690 c0 -5 5 -10 10 -10 6 0 10 5 10 10 0 6 -4 10 -10 10 -5 0
-10 -4 -10 -10z"/>
<path d="M7088 7643 c6 -2 18 -2 25 0 6 3 1 5 -13 5 -14 0 -19 -2 -12 -5z"/>
<path d="M3128 7607 c-22 -17 -28 -31 -28 -60 0 -24 -15 -66 -39 -115 -42 -84
-61 -152 -42 -152 6 0 11 9 11 19 0 11 15 46 33 78 39 68 59 121 51 134 -3 5
-2 9 3 9 9 0 28 41 37 83 8 32 8 32 -26 4z"/>
<path d="M6986 7611 c-4 -6 -21 -8 -39 -4 -29 5 -31 4 -16 -11 12 -14 26 -15
82 -9 37 5 69 13 70 18 3 13 -89 19 -97 6z"/>
<path d="M7038 7567 c-27 -6 -48 -13 -48 -16 1 -23 61 -56 85 -47 11 4 14 12
10 26 -5 16 -2 20 14 20 12 0 21 7 21 15 0 17 -13 17 -82 2z"/>
<path d="M6880 7482 c0 -14 47 -35 60 -27 8 5 8 10 -1 21 -12 15 -59 20 -59 6z"/>
<path d="M4758 7443 c7 -3 16 -2 19 1 4 3 -2 6 -13 5 -11 0 -14 -3 -6 -6z"/>
<path d="M7080 7440 c13 -8 12 -10 -2 -10 -23 0 -23 -2 9 -39 30 -34 47 -39
60 -17 4 7 18 18 31 25 27 14 29 35 3 26 -11 -3 -36 1 -56 10 -42 17 -68 20
-45 5z"/>
<path d="M6930 7425 c8 -9 10 -29 7 -51 -7 -44 14 -88 77 -155 55 -59 69 -62
61 -11 -3 21 -2 30 3 19 4 -10 19 -24 34 -31 l26 -14 -20 35 c-11 18 -17 37
-14 41 4 3 11 1 15 -6 10 -16 58 -42 65 -35 10 10 -7 35 -31 44 -13 5 -26 16
-30 26 -7 19 -26 43 -62 81 -25 25 -25 25 -32 3 -9 -23 -10 -24 -33 -15 -20 8
-21 24 -2 24 25 0 27 18 4 39 -26 25 -88 30 -68 6z"/>
<path d="M6801 7369 c-1 -9 10 -42 24 -73 14 -31 25 -65 25 -76 0 -11 4 -20
10 -20 5 0 13 -12 16 -27 4 -16 10 -32 14 -38 4 -5 13 -28 20 -50 6 -22 22
-49 35 -60 25 -21 75 -131 75 -164 0 -11 4 -22 9 -25 5 -3 12 -18 15 -33 4
-14 29 -47 57 -73 48 -45 49 -47 49 -104 0 -57 0 -58 25 -52 18 5 25 2 25 -9
0 -8 5 -15 10 -15 6 0 10 6 10 14 0 8 -4 18 -10 21 -5 3 -10 26 -10 50 0 29
-5 45 -15 49 -8 3 -15 12 -15 21 0 8 -4 15 -10 15 -5 0 -16 14 -25 30 -13 25
-13 30 -1 30 7 0 19 -7 26 -15 7 -8 17 -12 22 -9 6 4 14 0 19 -7 6 -9 7 -4 3
15 -4 18 -2 31 5 36 10 5 9 16 -3 44 -8 20 -11 36 -5 36 14 0 11 18 -8 38 -10
10 -27 36 -39 58 -12 24 -26 37 -35 35 -8 -2 -24 -3 -36 -3 -14 1 -23 -4 -23
-13 0 -8 -6 -15 -14 -15 -19 0 -56 48 -50 64 3 7 -7 18 -21 24 -14 6 -25 19
-25 28 0 9 -18 36 -40 60 -22 24 -40 49 -40 56 0 6 6 4 13 -7 8 -10 16 -14 20
-9 7 12 -49 125 -72 144 -10 8 -21 22 -24 30 -5 13 -6 12 -6 -1z m259 -459 c0
-5 -4 -10 -10 -10 -5 0 -10 5 -10 10 0 6 5 10 10 10 6 0 10 -4 10 -10z"/>
<path d="M7200 7360 c0 -6 7 -10 15 -10 8 0 15 2 15 4 0 2 -7 6 -15 10 -8 3
-15 1 -15 -4z"/>
<path d="M7150 7333 c8 -3 22 -15 31 -26 17 -21 17 -20 12 6 -4 21 -11 27 -32
26 -15 0 -20 -3 -11 -6z"/>
<path d="M7290 7330 c0 -5 5 -10 10 -10 6 0 10 5 10 10 0 6 -4 10 -10 10 -5 0
-10 -4 -10 -10z"/>
<path d="M6791 7264 c0 -11 3 -14 6 -6 3 7 2 16 -1 19 -3 4 -6 -2 -5 -13z"/>
<path d="M2960 7240 c0 -5 7 -10 15 -10 8 0 15 5 15 10 0 6 -7 10 -15 10 -8 0
-15 -4 -15 -10z"/>
<path d="M6940 7177 c0 -25 35 -65 47 -53 9 8 -24 76 -37 76 -5 0 -10 -11 -10
-23z"/>
<path d="M3530 7130 c0 -5 5 -10 10 -10 6 0 10 5 10 10 0 6 -4 10 -10 10 -5 0
-10 -4 -10 -10z"/>
<path d="M7120 7116 c0 -21 20 -30 33 -17 9 9 8 14 -3 21 -21 14 -30 12 -30
-4z"/>
<path d="M7155 6550 c3 -5 8 -10 11 -10 2 0 4 5 4 10 0 6 -5 10 -11 10 -5 0
-7 -4 -4 -10z"/>
<path d="M7242 6420 c0 -14 2 -19 5 -12 2 6 2 18 0 25 -3 6 -5 1 -5 -13z"/>
<path d="M6198 6045 c-4 -4 -61 -11 -126 -16 -121 -8 -217 -33 -252 -64 -11
-10 -21 -12 -24 -7 -3 6 -21 2 -43 -9 -21 -10 -49 -19 -63 -19 -40 0 -74 -65
-66 -128 3 -26 9 -88 14 -139 7 -73 15 -103 39 -144 35 -61 45 -68 58 -37 8
19 16 22 45 18 71 -10 136 -5 174 14 33 16 49 17 105 10 73 -10 215 -9 240 2
16 6 133 6 139 -1 2 -2 -2 -13 -8 -25 -6 -12 -9 -24 -6 -27 2 -3 43 0 91 6 65
9 100 9 146 0 57 -11 61 -11 85 12 25 23 26 27 19 94 -4 39 -7 84 -6 100 3 59
-10 111 -34 137 -14 15 -25 36 -25 48 0 11 -7 20 -15 20 -8 0 -31 18 -51 40
-28 30 -45 40 -68 40 -17 0 -47 8 -66 18 -19 11 -64 25 -100 31 -36 7 -74 15
-85 17 -56 11 -111 15 -117 9z"/>
<path d="M4455 6031 c-52 -4 -79 -10 -78 -17 2 -13 -81 -29 -97 -19 -8 5 -48
-12 -60 -26 -9 -10 -72 -29 -96 -29 -26 0 -30 -11 -14 -39 7 -14 4 -23 -15
-40 -14 -11 -29 -21 -34 -21 -5 0 -18 -10 -28 -23 -10 -13 -31 -27 -46 -31
-15 -3 -27 -13 -27 -21 0 -8 -9 -24 -20 -35 -11 -11 -20 -27 -20 -35 0 -8 -4
-15 -9 -15 -17 0 -18 -93 -2 -125 9 -16 19 -32 22 -35 3 -3 9 -13 12 -24 6
-14 14 -17 40 -12 17 3 61 10 96 16 36 6 67 12 69 15 3 2 22 -5 43 -15 21 -11
47 -20 58 -20 11 0 23 -4 26 -10 9 -14 48 -13 63 2 18 18 15 46 -5 52 -10 3
36 3 102 1 169 -7 209 5 254 80 18 30 37 55 40 55 4 0 15 -6 25 -13 23 -17 17
-49 -12 -62 -12 -5 -22 -12 -22 -15 0 -3 37 -12 83 -20 64 -12 96 -13 147 -5
65 10 65 11 64 43 -2 29 0 31 19 20 12 -6 28 -19 37 -29 28 -32 53 -32 91 3
30 28 38 44 49 101 22 117 15 237 -12 237 -6 0 -19 7 -28 15 -9 8 -25 16 -36
18 -10 1 -25 6 -32 10 -6 5 -33 12 -60 17 -26 5 -90 20 -142 34 -82 22 -113
26 -230 24 -74 -1 -171 -4 -215 -7z"/>
<path d="M7395 5493 c-16 -8 -54 -40 -84 -69 -29 -30 -65 -61 -80 -70 -14 -9
-37 -30 -50 -47 -13 -18 -42 -41 -65 -52 -28 -14 -43 -29 -49 -50 -5 -16 -14
-41 -20 -54 -18 -37 -13 -128 13 -216 12 -44 22 -92 22 -107 -1 -35 11 -36 29
-1 30 57 89 100 89 65 0 -12 8 -18 28 -19 15 0 19 1 9 4 -10 3 -17 12 -16 21
4 40 -2 62 -16 62 -8 0 -18 12 -21 27 -4 15 -21 42 -38 61 -34 37 -55 71 -56
88 0 6 28 28 63 49 34 21 76 51 93 67 37 34 88 52 103 34 5 -6 17 -42 27 -79
9 -37 22 -67 29 -67 16 0 32 -37 40 -94 4 -25 11 -46 15 -46 10 0 26 77 34
163 4 32 15 85 26 118 15 44 18 65 10 79 -5 10 -10 33 -10 50 0 23 -10 42 -34
66 -38 38 -48 40 -91 17z"/>
<path d="M4722 5465 c-30 -22 -232 -33 -232 -13 0 7 -5 5 -11 -5 -9 -16 -19
-18 -55 -12 -62 9 -56 -9 10 -30 37 -12 70 -15 103 -11 26 3 75 7 108 9 38 1
71 9 88 20 14 9 34 17 42 17 9 0 23 6 31 14 12 13 12 15 -3 15 -10 -1 -27 2
-38 6 -12 3 -30 -1 -43 -10z"/>
<path d="M5920 5461 c0 -24 170 -70 317 -87 50 -5 66 -3 85 11 16 13 18 16 5
11 -14 -4 -20 0 -24 15 -5 17 -11 20 -32 14 -58 -14 -127 -11 -181 8 -30 11
-81 25 -112 32 -51 10 -58 10 -58 -4z"/>
<path d="M3390 5050 c0 -5 7 -10 15 -10 8 0 15 5 15 10 0 6 -7 10 -15 10 -8 0
-15 -4 -15 -10z"/>
<path d="M3420 4995 c0 -8 5 -15 10 -15 6 0 10 7 10 15 0 8 -4 15 -10 15 -5 0
-10 -7 -10 -15z"/>
<path d="M3452 4970 c-20 -33 -15 -95 9 -111 12 -9 26 -35 34 -64 14 -56 29
-64 77 -44 30 12 30 12 9 28 -21 16 -21 16 -1 29 12 7 20 8 20 2 0 -5 6 -10
13 -10 8 0 20 -18 27 -40 7 -22 18 -40 23 -40 15 0 36 -33 37 -57 0 -13 6 -23
14 -23 18 0 26 -32 14 -55 -8 -14 -12 -15 -19 -4 -5 8 -9 24 -9 35 0 12 -7 24
-15 28 -12 4 -15 -3 -15 -32 0 -20 3 -47 6 -60 6 -22 7 -22 25 -6 18 17 20 16
39 -4 11 -12 20 -28 20 -37 0 -9 10 -26 21 -38 l22 -22 -6 24 c-4 17 1 30 19
46 27 25 31 57 9 82 -8 10 -14 20 -14 23 4 10 -42 90 -66 116 -14 15 -25 33
-25 41 0 7 -8 17 -17 20 -10 4 -24 13 -31 20 -7 7 -27 13 -45 13 l-31 0 23 21
c22 21 22 22 5 32 -25 13 -54 47 -54 61 0 6 -22 19 -49 29 -59 21 -54 21 -69
-3z m148 -100 c0 -5 -2 -10 -4 -10 -3 0 -8 5 -11 10 -3 6 -1 10 4 10 6 0 11
-4 11 -10z"/>
<path d="M5333 4770 c-15 -17 -36 -30 -45 -30 -9 0 -19 -4 -22 -9 -3 -5 -17
-12 -32 -15 -14 -4 -38 -18 -52 -31 -25 -23 -43 -30 -66 -26 -5 1 -22 -3 -38
-10 -42 -17 -38 -58 8 -99 75 -66 172 -87 249 -54 22 9 48 13 64 9 26 -7 37
-15 92 -68 33 -33 69 -33 84 0 15 35 85 58 100 33 11 -18 94 -11 141 12 38 17
51 31 70 72 27 57 30 94 12 119 -7 9 -41 38 -76 66 l-63 50 -32 -19 c-22 -14
-50 -20 -93 -20 -33 0 -82 -6 -107 -14 -45 -13 -48 -13 -79 10 -18 13 -45 30
-60 38 -25 15 -28 14 -55 -14z"/>
<path d="M3840 4455 c0 -8 5 -15 10 -15 6 0 20 -16 31 -35 27 -46 39 -44 39 5
0 34 -3 40 -21 40 -11 0 -29 5 -40 10 -15 8 -19 7 -19 -5z"/>
<path d="M5330 4164 c-8 -3 -24 -9 -35 -14 -11 -4 -51 -16 -90 -26 -70 -18
-119 -37 -252 -100 -39 -19 -78 -34 -86 -34 -8 0 -20 -7 -27 -15 -7 -8 -18
-15 -24 -15 -14 0 -66 -51 -66 -64 0 -5 10 -6 22 -3 13 4 31 -2 46 -14 23 -17
27 -18 42 -4 21 19 50 19 86 0 32 -16 84 -20 84 -6 0 5 12 8 28 6 15 -2 32 1
39 7 12 9 88 20 136 19 15 -1 35 3 45 8 11 6 42 3 87 -7 39 -8 130 -16 204
-18 73 -1 146 -8 162 -14 15 -7 34 -10 41 -7 7 2 24 -1 38 -8 14 -6 45 -22 70
-33 37 -18 51 -20 79 -12 24 7 47 6 73 -2 34 -10 40 -9 57 11 25 29 21 37 -41
86 -28 22 -60 49 -72 60 -65 60 -129 104 -194 134 -24 11 -55 29 -70 39 -39
27 -71 33 -101 18 -46 -24 -103 -28 -136 -10 -31 16 -119 28 -145 18z"/>
<path d="M4990 3772 c-9 -4 -15 -16 -15 -27 0 -15 9 -21 38 -26 48 -8 62 14
26 42 -26 20 -27 21 -49 11z"/>
<path d="M3780 3751 c0 -17 12 -41 21 -41 5 0 9 11 9 25 0 16 -6 25 -15 25 -8
0 -15 -4 -15 -9z"/>
<path d="M5680 3714 c0 -14 3 -14 15 -4 8 7 15 14 15 16 0 2 -7 4 -15 4 -8 0
-15 -7 -15 -16z"/>
<path d="M5185 3700 c-4 -6 -3 -16 3 -22 6 -6 12 -6 17 2 4 6 3 16 -3 22 -6 6
-12 6 -17 -2z"/>
<path d="M5330 3674 c-30 -6 -73 -20 -95 -29 l-40 -18 30 -13 c17 -7 36 -13
43 -14 6 0 12 -4 12 -10 0 -5 9 -10 21 -10 26 0 59 -17 59 -31 0 -28 -110 -44
-126 -18 -11 19 -54 9 -71 -17 -9 -14 -27 -30 -40 -35 -24 -9 -32 -39 -10 -39
6 -1 -1 -11 -17 -24 -31 -26 -28 -45 7 -47 17 -1 18 -2 5 -6 -10 -2 -18 -8
-18 -13 0 -13 23 -18 47 -9 17 6 27 3 41 -11 17 -18 27 -19 232 -10 125 5 221
5 230 0 10 -6 44 -5 84 2 49 8 73 8 91 0 17 -8 25 -8 25 -1 0 6 10 19 21 28
18 15 21 24 15 55 -4 21 -15 40 -24 44 -24 9 -85 51 -94 65 -3 6 -23 11 -42
11 -36 0 -54 26 -18 26 9 1 37 12 62 25 40 21 42 24 20 26 -14 1 -31 1 -38 0
-8 -1 -22 5 -31 13 -29 27 -253 71 -280 56 -10 -5 -22 -4 -31 4 -12 9 -27 10
-70 0z m80 -139 c0 -8 -7 -15 -15 -15 -8 0 -15 7 -15 15 0 8 7 15 15 15 8 0
15 -7 15 -15z"/>
<path d="M3867 3552 c-13 -14 -13 -20 -2 -35 16 -22 10 -47 -11 -47 -24 0 -18
-77 6 -90 11 -6 20 -17 20 -24 0 -19 66 -134 94 -166 12 -14 28 -38 36 -55 8
-16 24 -40 35 -52 32 -34 45 -52 45 -61 0 -5 9 -21 21 -36 11 -14 17 -26 12
-26 -4 0 7 -10 25 -21 17 -12 32 -29 32 -38 0 -28 61 -112 128 -176 51 -49 61
-64 57 -84 -7 -26 20 -75 36 -66 10 7 26 -7 52 -47 10 -16 23 -25 31 -22 7 3
20 -2 29 -10 9 -9 23 -16 31 -16 9 0 16 -4 16 -9 0 -4 19 -21 42 -37 24 -16
59 -45 79 -64 20 -19 50 -45 68 -58 20 -15 31 -32 31 -48 0 -13 5 -24 10 -24
6 0 10 7 10 15 0 8 5 15 10 15 14 0 13 -27 -2 -32 -7 -3 -9 -11 -3 -24 15 -34
14 -82 -1 -95 -10 -8 -33 -9 -73 -5 -34 4 -62 3 -65 -2 -9 -14 19 -33 38 -26
9 3 16 1 16 -6 0 -6 4 -9 9 -6 5 3 14 -8 20 -24 5 -17 19 -34 31 -38 19 -7 18
-10 -20 -47 -29 -28 -37 -41 -27 -48 9 -7 9 -10 0 -14 -7 -2 -13 -11 -13 -18
0 -7 -7 -25 -15 -41 -15 -29 -4 -61 17 -48 5 3 12 -3 15 -15 4 -15 13 -21 34
-21 22 0 29 -5 29 -20 0 -17 7 -20 40 -20 22 0 40 -4 40 -10 0 -5 -18 -10 -39
-10 -24 0 -41 -5 -44 -14 -8 -21 14 -26 65 -15 43 9 48 8 72 -16 14 -14 26
-37 26 -50 0 -13 5 -27 10 -30 6 -3 10 -17 10 -31 0 -13 -4 -24 -10 -24 -5 0
-10 -4 -10 -10 0 -24 39 -8 49 20 6 18 6 30 0 30 -5 0 -9 8 -9 18 0 13 2 14 9
3 6 -9 19 -12 43 -7 27 5 39 2 53 -14 19 -21 50 -26 60 -10 12 19 23 10 29
-25 6 -31 10 -34 31 -29 21 5 25 2 25 -14 0 -23 -22 -42 -28 -24 -7 22 -22 13
-22 -13 0 -21 5 -25 33 -25 85 -1 107 -5 111 -17 3 -7 12 -13 21 -13 8 0 15
-4 15 -9 0 -16 -40 -24 -55 -11 -10 8 -15 8 -20 0 -4 -6 -13 -9 -21 -6 -8 3
-17 -1 -21 -9 -4 -12 -9 -13 -19 -4 -7 6 -22 8 -33 4 -12 -3 -26 -3 -33 2 -7
4 -19 8 -27 10 -23 3 -111 -20 -111 -29 0 -4 -7 -8 -15 -8 -8 0 -15 -4 -15 -9
0 -5 -16 -15 -36 -21 -24 -8 -32 -15 -24 -20 8 -5 11 -20 7 -42 -4 -28 -1 -36
16 -44 37 -16 27 -39 -15 -38 -31 1 -38 -2 -38 -17 0 -20 22 -25 84 -20 l28 3
-17 -29 c-11 -19 -26 -30 -43 -31 -30 -2 -56 -22 -29 -22 19 0 23 -31 7 -61
-9 -15 -7 -19 5 -19 9 0 25 -5 36 -11 19 -10 19 -12 4 -35 -8 -13 -11 -24 -6
-24 6 0 14 -16 20 -35 5 -19 19 -48 31 -65 12 -16 22 -39 23 -50 2 -34 64 -44
252 -44 163 0 223 7 296 37 15 6 25 16 22 23 -2 6 8 15 24 19 l28 7 -25 10
-25 9 23 19 c24 20 28 36 10 42 -22 8 -19 47 5 59 29 16 38 30 31 51 -3 10 6
33 22 54 25 32 29 34 36 18 6 -13 6 -9 2 11 -3 17 -12 37 -20 46 -8 9 -12 18
-9 21 3 2 -9 17 -25 33 -35 34 -38 45 -9 45 11 0 18 4 15 9 -3 5 1 11 8 14 24
9 48 54 41 76 -3 10 -17 22 -30 25 -18 5 -25 13 -25 30 0 18 -9 27 -40 39 -24
9 -40 22 -40 32 0 13 -8 16 -32 14 -40 -4 -49 12 -17 28 34 18 50 16 56 -6 5
-18 49 -35 65 -24 12 6 10 43 -2 44 -5 1 -14 2 -19 3 -6 0 -19 11 -30 23 -20
22 -20 22 -1 28 11 4 25 16 32 28 13 24 14 28 16 68 2 22 9 28 48 39 34 10 42
16 33 24 -8 8 -13 8 -16 -1 -3 -7 -9 -13 -14 -13 -6 0 -8 4 -4 10 3 5 -4 19
-16 31 -15 15 -18 24 -10 32 6 6 11 16 11 21 0 6 -4 4 -10 -4 -14 -22 -20 -8
-14 32 4 24 14 40 30 49 17 8 24 21 24 41 0 26 -2 28 -27 22 l-28 -6 25 18
c65 48 77 74 43 93 -13 7 -15 12 -5 23 9 11 9 17 0 26 -9 9 -8 16 3 29 21 24
13 52 -18 64 -14 5 -23 12 -19 16 3 3 1 12 -5 20 -9 10 -8 18 3 31 9 9 13 23
11 30 -3 7 0 19 7 27 6 8 9 23 5 35 -4 11 -2 20 4 20 6 0 11 6 11 14 0 29 37
93 93 163 59 75 68 93 42 93 -28 0 -15 28 18 39 41 14 88 78 66 92 -8 5 -22 9
-31 10 -10 1 -24 2 -30 3 -7 1 -17 0 -23 -3 -5 -3 -28 -7 -50 -8 -51 -4 -68
-10 -60 -23 3 -5 1 -10 -5 -10 -7 0 -14 9 -17 20 -6 21 -8 22 -63 26 -19 1
-54 6 -77 12 -23 5 -45 7 -48 4 -12 -13 -43 -11 -49 3 -5 13 -9 13 -38 1 -18
-8 -46 -18 -63 -22 -21 -5 -25 -8 -12 -11 17 -4 23 -24 10 -36 -3 -4 -16 -1
-27 7 -30 19 -86 30 -86 17 0 -6 -14 -11 -32 -11 -19 0 -41 -9 -55 -22 l-24
-22 -6 22 c-5 22 -27 30 -37 14 -9 -14 -112 -5 -151 14 -29 14 -41 15 -56 6
-14 -9 -20 -9 -26 1 -4 7 -27 19 -51 27 -24 7 -67 29 -95 47 -28 18 -59 36
-69 39 -10 3 -18 11 -18 19 0 7 -22 24 -49 37 -32 15 -54 33 -62 51 -6 15 -19
27 -29 27 -9 0 -25 9 -35 20 -10 11 -25 20 -34 20 -20 1 -51 24 -51 38 0 6
-20 23 -44 37 -41 24 -156 131 -156 145 0 3 -16 14 -35 23 -19 9 -35 21 -35
26 0 14 -57 71 -70 71 -6 0 -19 18 -29 41 -11 25 -21 36 -26 29 -8 -13 -30 -8
-30 7 0 14 -62 83 -75 83 -6 0 -21 11 -34 25 -22 23 -24 24 -39 7z m1667 -836
c-3 -9 -10 -13 -16 -10 -5 3 -4 12 3 20 15 18 22 13 13 -10z m129 -689 c7 -30
5 -42 -14 -69 -13 -17 -24 -39 -24 -49 -2 -21 -32 -52 -44 -45 -17 11 -19 62
-4 109 8 26 19 47 24 47 5 0 9 6 9 13 0 17 21 38 34 34 6 -2 14 -20 19 -40z
m-863 -117 c0 -5 -4 -10 -9 -10 -6 0 -13 5 -16 10 -3 6 1 10 9 10 9 0 16 -4
16 -10z m80 -26 c0 -17 -22 -14 -28 4 -2 7 3 12 12 12 9 0 16 -7 16 -16z m-96
-59 c32 -24 11 -28 -30 -6 -34 19 -36 21 -14 21 14 0 34 -7 44 -15z m431 -295
c3 -5 1 -10 -4 -10 -6 0 -11 5 -11 10 0 6 2 10 4 10 3 0 8 -4 11 -10z m383
-140 c1 0 2 -5 2 -11 0 -8 -6 -7 -17 2 -9 8 -18 13 -20 12 -1 -2 -11 -11 -21
-21 -13 -13 -29 -17 -62 -14 l-43 4 37 13 c21 7 40 16 44 20 5 5 23 4 80 -5z
m-579 -364 c9 -10 8 -15 -4 -20 -8 -3 -22 -3 -30 0 -12 5 -13 10 -4 20 6 8 15
14 19 14 4 0 13 -6 19 -14z"/>
<path d="M4990 3504 c0 -9 5 -14 12 -12 18 6 21 28 4 28 -9 0 -16 -7 -16 -16z"/>
<path d="M4593 3174 c-8 -20 13 -42 27 -28 12 12 3 44 -11 44 -5 0 -12 -7 -16
-16z"/>
<path d="M5787 2806 c-6 -16 16 -40 26 -29 4 3 7 15 7 25 0 21 -25 24 -33 4z"/>
<path d="M3906 2621 c-3 -5 1 -14 8 -20 16 -13 32 2 21 19 -8 12 -22 13 -29 1z"/>
<path d="M6580 2025 c0 -5 5 -17 10 -25 5 -8 10 -10 10 -5 0 6 -5 17 -10 25
-5 8 -10 11 -10 5z"/>
<path d="M6586 1937 c3 -10 9 -15 12 -12 3 3 0 11 -7 18 -10 9 -11 8 -5 -6z"/>
<path d="M3730 1891 c0 -10 7 -24 15 -31 12 -10 16 -9 21 4 6 16 -11 46 -27
46 -5 0 -9 -8 -9 -19z"/>
<path d="M6580 1877 c0 -8 9 -24 20 -37 21 -24 25 -15 14 28 -7 24 -34 31 -34
9z"/>
<path d="M6590 1743 c0 -28 3 -34 10 -23 13 20 13 47 0 55 -6 4 -10 -9 -10
-32z"/>
<path d="M6581 1664 c0 -11 3 -14 6 -6 3 7 2 16 -1 19 -3 4 -6 -2 -5 -13z"/>
<path d="M4785 1620 c-3 -6 1 -13 10 -16 21 -9 26 -2 10 13 -9 8 -16 9 -20 3z"/>
<path d="M4943 1426 c-22 -10 -31 -26 -15 -26 12 0 48 28 42 32 -3 2 -15 -1
-27 -6z"/>
<path d="M4956 1355 c6 -16 54 -21 54 -6 0 5 -10 11 -22 15 -34 9 -38 7 -32
-9z"/>
<path d="M5852 1088 c-22 -22 -14 -40 16 -36 33 4 47 48 15 48 -11 0 -24 -5
-31 -12z"/>
<path d="M5688 883 c7 -3 16 -2 19 1 4 3 -2 6 -13 5 -11 0 -14 -3 -6 -6z"/>
<path d="M4825 491 l-30 -7 43 -11 c38 -10 42 -9 42 8 0 20 -6 21 -55 10z"/>
<path d="M5042 475 c3 -3 23 -7 44 -9 21 -3 52 -9 67 -15 32 -12 64 -15 53 -4
-11 11 -97 32 -135 33 -19 0 -32 -2 -29 -5z"/>
</g>
</svg>
